<svg width="15" height="15" viewBox="0 0 15 15" fill="none" xmlns="http://www.w3.org/2000/svg">
<g id="Group 46">
<path id="Vector" d="M14.3047 7.15234C14.3047 11.1025 11.1025 14.3047 7.15234 14.3047C3.2022 14.3047 0 11.1025 0 7.15234C0 3.2022 3.2022 0 7.15234 0C11.1025 0 14.3047 3.2022 14.3047 7.15234ZM6.32504 10.9395L11.6316 5.63287C11.8118 5.45268 11.8118 5.1605 11.6316 4.98031L10.9791 4.32774C10.7989 4.14752 10.5067 4.14752 10.3265 4.32774L5.99874 8.65543L3.97823 6.63492C3.79804 6.45473 3.50586 6.45473 3.32564 6.63492L2.67307 7.28749C2.49288 7.46768 2.49288 7.75986 2.67307 7.94005L5.67244 10.9394C5.85266 11.1196 6.14481 11.1196 6.32504 10.9395Z" fill="#5EC455"/>
</g>
</svg>
