<svg width="32" height="38" viewBox="0 0 32 38" fill="none" xmlns="http://www.w3.org/2000/svg">
<g id="Group 26">
<path id="Vector" d="M24.3814 24.8026C23.4921 23.8675 23.1303 22.5671 23.379 21.3298H3.99891C1.79037 21.3298 0 23.1203 0 25.3288V26.9647C0 27.982 0.317228 28.9739 0.907515 29.8023C3.64976 33.6509 8.13607 35.5574 14.2192 35.5574C14.911 35.5574 15.5822 35.5327 16.2325 35.4834C15.7792 34.2193 15.9743 32.7616 16.8615 31.6417L18.284 29.8461C19.23 28.6518 20.7832 28.1173 22.2638 28.4765L23.7537 28.838C24.6775 28.0604 25.2284 27.1046 25.4384 25.9143L24.3814 24.8026ZM14.2192 0C19.1295 0 23.1102 3.98059 23.1102 8.89093C23.1102 13.8012 19.1295 17.7818 14.2192 17.7818C9.30886 17.7818 5.32825 13.8012 5.32825 8.89093C5.32825 3.98059 9.30886 0 14.2192 0ZM25.2298 21.3209L26.0753 19.1789C26.5065 18.0862 27.7125 17.519 28.8283 17.8842L29.5949 18.1349C30.8826 18.5564 31.9517 19.5683 31.9951 20.9244C32.1715 26.4563 27.5932 34.4076 22.7256 37.026C21.5285 37.6701 20.1146 37.244 19.1059 36.3304L18.5072 35.7881C17.6382 35.0009 17.5279 33.6736 18.2554 32.755L19.6777 30.9587C20.1938 30.307 21.0411 30.0154 21.8486 30.2113L24.1447 30.7686C26.1062 29.4705 27.1575 27.6456 27.2983 25.2939L25.6692 23.5797C25.0957 22.9766 24.9243 22.0948 25.2298 21.3209Z" fill="#C7C7C7"/>
</g>
</svg>
